<svg width="1031" height="129" viewBox="0 0 1031 129" fill="none" xmlns="http://www.w3.org/2000/svg">
<mask id="path-1-inside-1" fill="white">
<path d="M92.1719 25.6094H91.0469C90.5312 18.8594 88.5625 14.5 85.1406 12.5312C81.7188 10.5156 77.5 9.50781 72.4844 9.50781H51.8828V96.4844C51.8828 103.844 55.6328 107.641 63.1328 107.875V109H30.1562V107.875C33.25 107.781 35.8516 106.891 37.9609 105.203C40.1172 103.469 41.1953 100.562 41.1953 96.4844V9.50781H20.5938C15.5781 9.50781 11.3594 10.5156 7.9375 12.5312C4.5625 14.5 2.59375 18.8594 2.03125 25.6094H0.90625V0.296875H2.03125C2.78125 1.46875 3.4375 2.33594 4 2.89844C4.5625 3.46094 5.28906 3.95312 6.17969 4.375C7.07031 4.75 8.10156 5.03125 9.27344 5.21875C10.4922 5.35938 11.9219 5.42969 13.5625 5.42969H80.6406C85.0938 5.42969 88.5625 3.71875 91.0469 0.296875H92.1719V25.6094Z"/>
<path d="M180.625 52.8203V18.1562C180.625 14.7812 179.711 12.0156 177.883 9.85938C176.055 7.70312 173.219 6.625 169.375 6.625V5.42969H202.352V6.625C198.508 6.625 195.695 7.70312 193.914 9.85938C192.133 11.9688 191.242 14.7344 191.242 18.1562V96.4844C191.242 104.078 194.945 107.875 202.352 107.875V109H169.375V107.875C172.891 107.875 175.633 106.938 177.602 105.062C179.617 103.141 180.625 100.328 180.625 96.625V55.9844H121.281V96.4844C121.281 100.094 122.289 102.906 124.305 104.922C126.367 106.891 129.109 107.875 132.531 107.875V109H99.5547V107.875C103.117 107.875 105.836 106.891 107.711 104.922C109.633 102.906 110.594 100.094 110.594 96.4844V18.1562C110.594 10.4688 106.914 6.625 99.5547 6.625V5.42969H132.531V6.625C128.641 6.625 125.781 7.70312 123.953 9.85938C122.172 11.9688 121.281 14.7344 121.281 18.1562V52.8203H180.625Z"/>
<path d="M259.516 4.16406L290.523 92.8984C292.164 97.4922 293.711 100.82 295.164 102.883C296.617 104.945 298 106.258 299.312 106.82C300.672 107.336 302.383 107.688 304.445 107.875V109H270.625V107.875C274.094 107.875 276.766 107.547 278.641 106.891C280.516 106.234 281.453 104.453 281.453 101.547C281.453 99.9531 281.008 97.8203 280.117 95.1484C279.93 94.7734 279.836 94.4922 279.836 94.3047L270.625 66.8125H234.766L226.539 92.2656C225.414 95.7344 224.852 98.5234 224.852 100.633C224.852 103.539 225.578 105.484 227.031 106.469C228.484 107.406 230.547 107.875 233.219 107.875V109H208.891V107.875C212.359 107.547 215.125 106.234 217.188 103.938C219.297 101.594 221.125 98.0547 222.672 93.3203L251.922 4.16406H259.516ZM235.961 63.0859H268.938L252.062 13.9375H251.781L235.961 63.0859Z"/>
<path d="M418.703 5.42969V6.625C416.078 6.95312 413.992 7.46875 412.445 8.17188C410.945 8.82812 409.773 10.1641 408.93 12.1797C408.086 14.1484 407.664 17.0078 407.664 20.7578V111.602H406.961L327.438 22.8672V86.5703C327.438 91.8672 327.648 95.8047 328.07 98.3828C328.492 100.961 329.102 102.812 329.898 103.938C331.633 106.375 334.656 107.688 338.969 107.875V109H313.023V107.875C315.93 107.734 318.18 107.125 319.773 106.047C321.414 104.922 322.562 102.906 323.219 100C323.922 97.0469 324.273 92.6172 324.273 86.7109V19.1406L320.828 15.2734C317.781 11.8047 315.344 9.625 313.516 8.73438C311.688 7.79688 309.414 7.09375 306.695 6.625V5.42969H326.172L404.5 93.1797V26.3125C404.5 21.2969 404.289 17.5469 403.867 15.0625C403.492 12.5781 402.438 10.5859 400.703 9.08594C399.016 7.58594 396.344 6.76562 392.688 6.625V5.42969H418.703Z"/>
<path d="M509.406 52.8203V18.1562C509.406 14.7812 508.492 12.0156 506.664 9.85938C504.836 7.70312 502 6.625 498.156 6.625V5.42969H531.133V6.625C527.289 6.625 524.477 7.70312 522.695 9.85938C520.914 11.9688 520.023 14.7344 520.023 18.1562V96.4844C520.023 104.078 523.727 107.875 531.133 107.875V109H498.156V107.875C501.672 107.875 504.414 106.938 506.383 105.062C508.398 103.141 509.406 100.328 509.406 96.625V55.9844H450.062V96.4844C450.062 100.094 451.07 102.906 453.086 104.922C455.148 106.891 457.891 107.875 461.312 107.875V109H428.336V107.875C431.898 107.875 434.617 106.891 436.492 104.922C438.414 102.906 439.375 100.094 439.375 96.4844V18.1562C439.375 10.4688 435.695 6.625 428.336 6.625V5.42969H461.312V6.625C457.422 6.625 454.562 7.70312 452.734 9.85938C450.953 11.9688 450.062 14.7344 450.062 18.1562V52.8203H509.406Z"/>
<path d="M704.945 110.266L706.562 111.32C702.062 116.477 697.656 120.672 693.344 123.906C689.031 127.141 684.273 128.758 679.07 128.758C677.43 128.758 675.789 128.617 674.148 128.336C672.508 128.055 670.422 127.492 667.891 126.648C665.406 125.805 662.5 124.586 659.172 122.992C653.406 120.273 645.484 116.336 635.406 111.18C635.312 111.086 634.75 110.781 633.719 110.266C629.734 109.047 626.828 108.109 625 107.453C623.219 106.75 620.875 105.578 617.969 103.938C615.062 102.25 612.133 100.047 609.18 97.3281C606.273 94.6094 603.555 91.3984 601.023 87.6953C599.055 84.8359 597.344 81.6953 595.891 78.2734C594.438 74.8047 593.336 71.2422 592.586 67.5859C591.836 63.8828 591.461 60.3203 591.461 56.8984C591.461 46.6328 594.016 37.3281 599.125 28.9844C604.234 20.5938 610.984 14.0781 619.375 9.4375C627.812 4.75 636.859 2.40625 646.516 2.40625C653.922 2.40625 660.953 3.8125 667.609 6.625C674.312 9.4375 680.148 13.375 685.117 18.4375C690.133 23.4531 694.023 29.2891 696.789 35.9453C699.555 42.5547 700.938 49.5859 700.938 57.0391C700.938 64.3516 699.461 71.5 696.508 78.4844C693.602 85.4688 689.359 91.6094 683.781 96.9062C681.25 99.2969 678.93 101.219 676.82 102.672C674.711 104.125 672.648 105.32 670.633 106.258C668.664 107.195 666.602 108.016 664.445 108.719C662.289 109.375 660.203 109.938 658.188 110.406V110.758C658.469 110.758 659.477 111.227 661.211 112.164C667.445 115.727 671.992 117.883 674.852 118.633C677.711 119.43 680.828 119.828 684.203 119.828C688.375 119.828 691.75 119.172 694.328 117.859C696.953 116.547 700.211 114.227 704.102 110.898C704.195 110.898 704.336 110.781 704.523 110.547C704.758 110.359 704.898 110.266 704.945 110.266ZM688.562 57.7422C688.562 47.4297 687.156 38.8281 684.344 31.9375C681.531 25 677.945 19.6328 673.586 15.8359C669.273 12.0391 664.773 9.39062 660.086 7.89062C655.398 6.39062 650.828 5.64062 646.375 5.64062C641.781 5.64062 637.094 6.41406 632.312 7.96094C627.578 9.50781 623.008 12.2266 618.602 16.1172C614.242 20.0078 610.703 25.3281 607.984 32.0781C605.266 38.7812 603.906 46.9609 603.906 56.6172C603.906 66.0391 605.148 74.1719 607.633 81.0156C610.117 87.8125 613.516 93.2969 617.828 97.4688C620.547 100.047 623.5 102.156 626.688 103.797C629.875 105.438 633.18 106.633 636.602 107.383C640.07 108.086 643.469 108.438 646.797 108.438C652.75 108.438 658.305 107.336 663.461 105.133C668.664 102.93 673.047 99.7656 676.609 95.6406C684.578 86.3594 688.562 73.7266 688.562 57.7422Z"/>
<path d="M814.07 109H792.344V91.8438L791.992 91.5625C788.992 98.5469 784.492 103.656 778.492 106.891C772.539 110.125 766.305 111.742 759.789 111.742C752.43 111.742 745.797 109.984 739.891 106.469C734.031 102.953 729.719 98.6172 726.953 93.4609C724.984 89.8047 723.742 86.0078 723.227 82.0703C722.711 78.0859 722.453 73.9609 722.453 69.6953V18.1562C722.453 15.0625 721.82 12.4609 720.555 10.3516C719.336 8.24219 716.383 7 711.695 6.625V5.42969H744.25V6.625C739.469 7.1875 736.422 8.57031 735.109 10.7734C733.797 12.9766 733.141 15.4375 733.141 18.1562V68.8516C733.141 79.1641 734.195 86.7812 736.305 91.7031C738.555 96.9531 741.93 101.055 746.43 104.008C750.93 106.961 756.039 108.438 761.758 108.438C764.148 108.438 766.984 108.016 770.266 107.172C773.547 106.328 776.617 104.922 779.477 102.953C788.055 97.0938 792.344 87.6953 792.344 74.7578V18.1562C792.344 15.2969 791.688 12.7656 790.375 10.5625C789.062 8.35938 785.969 7.04688 781.094 6.625V5.42969H814.211V6.625C809.43 6.85938 806.359 8.19531 805 10.6328C803.641 13.0703 802.961 15.5312 802.961 18.0156V96.4844C802.961 99.2031 803.406 101.359 804.297 102.953C805.234 104.5 806.5 105.602 808.094 106.258C809.734 106.914 811.727 107.453 814.07 107.875V109Z"/>
<path d="M871.516 4.16406L902.523 92.8984C904.164 97.4922 905.711 100.82 907.164 102.883C908.617 104.945 910 106.258 911.312 106.82C912.672 107.336 914.383 107.688 916.445 107.875V109H882.625V107.875C886.094 107.875 888.766 107.547 890.641 106.891C892.516 106.234 893.453 104.453 893.453 101.547C893.453 99.9531 893.008 97.8203 892.117 95.1484C891.93 94.7734 891.836 94.4922 891.836 94.3047L882.625 66.8125H846.766L838.539 92.2656C837.414 95.7344 836.852 98.5234 836.852 100.633C836.852 103.539 837.578 105.484 839.031 106.469C840.484 107.406 842.547 107.875 845.219 107.875V109H820.891V107.875C824.359 107.547 827.125 106.234 829.188 103.938C831.297 101.594 833.125 98.0547 834.672 93.3203L863.922 4.16406H871.516ZM847.961 63.0859H880.938L864.062 13.9375H863.781L847.961 63.0859Z"/>
<path d="M1030.7 5.42969V6.625C1028.08 6.95312 1025.99 7.46875 1024.45 8.17188C1022.95 8.82812 1021.77 10.1641 1020.93 12.1797C1020.09 14.1484 1019.66 17.0078 1019.66 20.7578V111.602H1018.96L939.438 22.8672V86.5703C939.438 91.8672 939.648 95.8047 940.07 98.3828C940.492 100.961 941.102 102.812 941.898 103.938C943.633 106.375 946.656 107.688 950.969 107.875V109H925.023V107.875C927.93 107.734 930.18 107.125 931.773 106.047C933.414 104.922 934.562 102.906 935.219 100C935.922 97.0469 936.273 92.6172 936.273 86.7109V19.1406L932.828 15.2734C929.781 11.8047 927.344 9.625 925.516 8.73438C923.688 7.79688 921.414 7.09375 918.695 6.625V5.42969H938.172L1016.5 93.1797V26.3125C1016.5 21.2969 1016.29 17.5469 1015.87 15.0625C1015.49 12.5781 1014.44 10.5859 1012.7 9.08594C1011.02 7.58594 1008.34 6.76562 1004.69 6.625V5.42969H1030.7Z"/>
</mask>
<path d="M92.1719 25.6094H91.0469C90.5312 18.8594 88.5625 14.5 85.1406 12.5312C81.7188 10.5156 77.5 9.50781 72.4844 9.50781H51.8828V96.4844C51.8828 103.844 55.6328 107.641 63.1328 107.875V109H30.1562V107.875C33.25 107.781 35.8516 106.891 37.9609 105.203C40.1172 103.469 41.1953 100.562 41.1953 96.4844V9.50781H20.5938C15.5781 9.50781 11.3594 10.5156 7.9375 12.5312C4.5625 14.5 2.59375 18.8594 2.03125 25.6094H0.90625V0.296875H2.03125C2.78125 1.46875 3.4375 2.33594 4 2.89844C4.5625 3.46094 5.28906 3.95312 6.17969 4.375C7.07031 4.75 8.10156 5.03125 9.27344 5.21875C10.4922 5.35938 11.9219 5.42969 13.5625 5.42969H80.6406C85.0938 5.42969 88.5625 3.71875 91.0469 0.296875H92.1719V25.6094Z" stroke="#1F1F1F" stroke-width="2" mask="url(#path-1-inside-1)"/>
<path d="M180.625 52.8203V18.1562C180.625 14.7812 179.711 12.0156 177.883 9.85938C176.055 7.70312 173.219 6.625 169.375 6.625V5.42969H202.352V6.625C198.508 6.625 195.695 7.70312 193.914 9.85938C192.133 11.9688 191.242 14.7344 191.242 18.1562V96.4844C191.242 104.078 194.945 107.875 202.352 107.875V109H169.375V107.875C172.891 107.875 175.633 106.938 177.602 105.062C179.617 103.141 180.625 100.328 180.625 96.625V55.9844H121.281V96.4844C121.281 100.094 122.289 102.906 124.305 104.922C126.367 106.891 129.109 107.875 132.531 107.875V109H99.5547V107.875C103.117 107.875 105.836 106.891 107.711 104.922C109.633 102.906 110.594 100.094 110.594 96.4844V18.1562C110.594 10.4688 106.914 6.625 99.5547 6.625V5.42969H132.531V6.625C128.641 6.625 125.781 7.70312 123.953 9.85938C122.172 11.9688 121.281 14.7344 121.281 18.1562V52.8203H180.625Z" stroke="#1F1F1F" stroke-width="2" mask="url(#path-1-inside-1)"/>
<path d="M259.516 4.16406L290.523 92.8984C292.164 97.4922 293.711 100.82 295.164 102.883C296.617 104.945 298 106.258 299.312 106.82C300.672 107.336 302.383 107.688 304.445 107.875V109H270.625V107.875C274.094 107.875 276.766 107.547 278.641 106.891C280.516 106.234 281.453 104.453 281.453 101.547C281.453 99.9531 281.008 97.8203 280.117 95.1484C279.93 94.7734 279.836 94.4922 279.836 94.3047L270.625 66.8125H234.766L226.539 92.2656C225.414 95.7344 224.852 98.5234 224.852 100.633C224.852 103.539 225.578 105.484 227.031 106.469C228.484 107.406 230.547 107.875 233.219 107.875V109H208.891V107.875C212.359 107.547 215.125 106.234 217.188 103.938C219.297 101.594 221.125 98.0547 222.672 93.3203L251.922 4.16406H259.516ZM235.961 63.0859H268.938L252.062 13.9375H251.781L235.961 63.0859Z" stroke="#1F1F1F" stroke-width="2" mask="url(#path-1-inside-1)"/>
<path d="M418.703 5.42969V6.625C416.078 6.95312 413.992 7.46875 412.445 8.17188C410.945 8.82812 409.773 10.1641 408.93 12.1797C408.086 14.1484 407.664 17.0078 407.664 20.7578V111.602H406.961L327.438 22.8672V86.5703C327.438 91.8672 327.648 95.8047 328.07 98.3828C328.492 100.961 329.102 102.812 329.898 103.938C331.633 106.375 334.656 107.688 338.969 107.875V109H313.023V107.875C315.93 107.734 318.18 107.125 319.773 106.047C321.414 104.922 322.562 102.906 323.219 100C323.922 97.0469 324.273 92.6172 324.273 86.7109V19.1406L320.828 15.2734C317.781 11.8047 315.344 9.625 313.516 8.73438C311.688 7.79688 309.414 7.09375 306.695 6.625V5.42969H326.172L404.5 93.1797V26.3125C404.5 21.2969 404.289 17.5469 403.867 15.0625C403.492 12.5781 402.438 10.5859 400.703 9.08594C399.016 7.58594 396.344 6.76562 392.688 6.625V5.42969H418.703Z" stroke="#1F1F1F" stroke-width="2" mask="url(#path-1-inside-1)"/>
<path d="M509.406 52.8203V18.1562C509.406 14.7812 508.492 12.0156 506.664 9.85938C504.836 7.70312 502 6.625 498.156 6.625V5.42969H531.133V6.625C527.289 6.625 524.477 7.70312 522.695 9.85938C520.914 11.9688 520.023 14.7344 520.023 18.1562V96.4844C520.023 104.078 523.727 107.875 531.133 107.875V109H498.156V107.875C501.672 107.875 504.414 106.938 506.383 105.062C508.398 103.141 509.406 100.328 509.406 96.625V55.9844H450.062V96.4844C450.062 100.094 451.07 102.906 453.086 104.922C455.148 106.891 457.891 107.875 461.312 107.875V109H428.336V107.875C431.898 107.875 434.617 106.891 436.492 104.922C438.414 102.906 439.375 100.094 439.375 96.4844V18.1562C439.375 10.4688 435.695 6.625 428.336 6.625V5.42969H461.312V6.625C457.422 6.625 454.562 7.70312 452.734 9.85938C450.953 11.9688 450.062 14.7344 450.062 18.1562V52.8203H509.406Z" stroke="#1F1F1F" stroke-width="2" mask="url(#path-1-inside-1)"/>
<path d="M704.945 110.266L706.562 111.32C702.062 116.477 697.656 120.672 693.344 123.906C689.031 127.141 684.273 128.758 679.07 128.758C677.43 128.758 675.789 128.617 674.148 128.336C672.508 128.055 670.422 127.492 667.891 126.648C665.406 125.805 662.5 124.586 659.172 122.992C653.406 120.273 645.484 116.336 635.406 111.18C635.312 111.086 634.75 110.781 633.719 110.266C629.734 109.047 626.828 108.109 625 107.453C623.219 106.75 620.875 105.578 617.969 103.938C615.062 102.25 612.133 100.047 609.18 97.3281C606.273 94.6094 603.555 91.3984 601.023 87.6953C599.055 84.8359 597.344 81.6953 595.891 78.2734C594.438 74.8047 593.336 71.2422 592.586 67.5859C591.836 63.8828 591.461 60.3203 591.461 56.8984C591.461 46.6328 594.016 37.3281 599.125 28.9844C604.234 20.5938 610.984 14.0781 619.375 9.4375C627.812 4.75 636.859 2.40625 646.516 2.40625C653.922 2.40625 660.953 3.8125 667.609 6.625C674.312 9.4375 680.148 13.375 685.117 18.4375C690.133 23.4531 694.023 29.2891 696.789 35.9453C699.555 42.5547 700.938 49.5859 700.938 57.0391C700.938 64.3516 699.461 71.5 696.508 78.4844C693.602 85.4688 689.359 91.6094 683.781 96.9062C681.25 99.2969 678.93 101.219 676.82 102.672C674.711 104.125 672.648 105.32 670.633 106.258C668.664 107.195 666.602 108.016 664.445 108.719C662.289 109.375 660.203 109.938 658.188 110.406V110.758C658.469 110.758 659.477 111.227 661.211 112.164C667.445 115.727 671.992 117.883 674.852 118.633C677.711 119.43 680.828 119.828 684.203 119.828C688.375 119.828 691.75 119.172 694.328 117.859C696.953 116.547 700.211 114.227 704.102 110.898C704.195 110.898 704.336 110.781 704.523 110.547C704.758 110.359 704.898 110.266 704.945 110.266ZM688.562 57.7422C688.562 47.4297 687.156 38.8281 684.344 31.9375C681.531 25 677.945 19.6328 673.586 15.8359C669.273 12.0391 664.773 9.39062 660.086 7.89062C655.398 6.39062 650.828 5.64062 646.375 5.64062C641.781 5.64062 637.094 6.41406 632.312 7.96094C627.578 9.50781 623.008 12.2266 618.602 16.1172C614.242 20.0078 610.703 25.3281 607.984 32.0781C605.266 38.7812 603.906 46.9609 603.906 56.6172C603.906 66.0391 605.148 74.1719 607.633 81.0156C610.117 87.8125 613.516 93.2969 617.828 97.4688C620.547 100.047 623.5 102.156 626.688 103.797C629.875 105.438 633.18 106.633 636.602 107.383C640.07 108.086 643.469 108.438 646.797 108.438C652.75 108.438 658.305 107.336 663.461 105.133C668.664 102.93 673.047 99.7656 676.609 95.6406C684.578 86.3594 688.562 73.7266 688.562 57.7422Z" stroke="#1F1F1F" stroke-width="2" mask="url(#path-1-inside-1)"/>
<path d="M814.07 109H792.344V91.8438L791.992 91.5625C788.992 98.5469 784.492 103.656 778.492 106.891C772.539 110.125 766.305 111.742 759.789 111.742C752.43 111.742 745.797 109.984 739.891 106.469C734.031 102.953 729.719 98.6172 726.953 93.4609C724.984 89.8047 723.742 86.0078 723.227 82.0703C722.711 78.0859 722.453 73.9609 722.453 69.6953V18.1562C722.453 15.0625 721.82 12.4609 720.555 10.3516C719.336 8.24219 716.383 7 711.695 6.625V5.42969H744.25V6.625C739.469 7.1875 736.422 8.57031 735.109 10.7734C733.797 12.9766 733.141 15.4375 733.141 18.1562V68.8516C733.141 79.1641 734.195 86.7812 736.305 91.7031C738.555 96.9531 741.93 101.055 746.43 104.008C750.93 106.961 756.039 108.438 761.758 108.438C764.148 108.438 766.984 108.016 770.266 107.172C773.547 106.328 776.617 104.922 779.477 102.953C788.055 97.0938 792.344 87.6953 792.344 74.7578V18.1562C792.344 15.2969 791.688 12.7656 790.375 10.5625C789.062 8.35938 785.969 7.04688 781.094 6.625V5.42969H814.211V6.625C809.43 6.85938 806.359 8.19531 805 10.6328C803.641 13.0703 802.961 15.5312 802.961 18.0156V96.4844C802.961 99.2031 803.406 101.359 804.297 102.953C805.234 104.5 806.5 105.602 808.094 106.258C809.734 106.914 811.727 107.453 814.07 107.875V109Z" stroke="#1F1F1F" stroke-width="2" mask="url(#path-1-inside-1)"/>
<path d="M871.516 4.16406L902.523 92.8984C904.164 97.4922 905.711 100.82 907.164 102.883C908.617 104.945 910 106.258 911.312 106.82C912.672 107.336 914.383 107.688 916.445 107.875V109H882.625V107.875C886.094 107.875 888.766 107.547 890.641 106.891C892.516 106.234 893.453 104.453 893.453 101.547C893.453 99.9531 893.008 97.8203 892.117 95.1484C891.93 94.7734 891.836 94.4922 891.836 94.3047L882.625 66.8125H846.766L838.539 92.2656C837.414 95.7344 836.852 98.5234 836.852 100.633C836.852 103.539 837.578 105.484 839.031 106.469C840.484 107.406 842.547 107.875 845.219 107.875V109H820.891V107.875C824.359 107.547 827.125 106.234 829.188 103.938C831.297 101.594 833.125 98.0547 834.672 93.3203L863.922 4.16406H871.516ZM847.961 63.0859H880.938L864.062 13.9375H863.781L847.961 63.0859Z" stroke="#1F1F1F" stroke-width="2" mask="url(#path-1-inside-1)"/>
<path d="M1030.7 5.42969V6.625C1028.08 6.95312 1025.99 7.46875 1024.45 8.17188C1022.95 8.82812 1021.77 10.1641 1020.93 12.1797C1020.09 14.1484 1019.66 17.0078 1019.66 20.7578V111.602H1018.96L939.438 22.8672V86.5703C939.438 91.8672 939.648 95.8047 940.07 98.3828C940.492 100.961 941.102 102.812 941.898 103.938C943.633 106.375 946.656 107.688 950.969 107.875V109H925.023V107.875C927.93 107.734 930.18 107.125 931.773 106.047C933.414 104.922 934.562 102.906 935.219 100C935.922 97.0469 936.273 92.6172 936.273 86.7109V19.1406L932.828 15.2734C929.781 11.8047 927.344 9.625 925.516 8.73438C923.688 7.79688 921.414 7.09375 918.695 6.625V5.42969H938.172L1016.5 93.1797V26.3125C1016.5 21.2969 1016.29 17.5469 1015.87 15.0625C1015.49 12.5781 1014.44 10.5859 1012.7 9.08594C1011.02 7.58594 1008.34 6.76562 1004.69 6.625V5.42969H1030.7Z" stroke="#1F1F1F" stroke-width="2" mask="url(#path-1-inside-1)"/>
</svg>
